# xmcd
#
# Track frame offsets:
#	150
#	9270
#	20825
#	31802
#	43065
#	53150
#	65014
#	73740
#	86235
#	95130
#	108297
#	118397
#	128667
#	137415
#	147937
#	161945
#	171190
#	182045
#	191330
#	205390
#	221485
#	230390
#	240155
#	250140
#
# Disc length: 3545 seconds
#
# Revision: 1
# Processed by: cddbd v1.4PL0 Copyright (c) Steve Scherf et al.
# Submitted via: audiograbber 1.81.02
#
DISCID=5c0dd718
DTITLE=Peter Posa - The Best Of Peter Posa
DYEAR=1900
DGENRE=Instrumental
TTITLE0=The White Rabbit
TTITLE1=Grasshopper
TTITLE2=Isa Lisa
TTITLE3=Scottish Melody
TTITLE4=Stage To Cimmaron
TTITLE5=Quand Le Soliel Dit Bonjour Aux Montagnes
TTITLE6=Gizmo
TTITLE7=Vieni Vieni
TTITLE8=Velvet Waters
TTITLE9=Guitar Boogie
TTITLE10=The Old Blue Bear
TTITLE11=Nashville Express
TTITLE12=Wheels
TTITLE13=Gonk
TTITLE14=La Golondrina
TTITLE15=Hitch Hiker
TTITLE16=Kisi Mai
TTITLE17=The Mad Hatter
TTITLE18=Kola
TTITLE19=Terry
TTITLE20=Mona Lisa
TTITLE21=Technique
TTITLE22=Dominique
TTITLE23=Scottish and Irish Melody
EXTD=
EXTT0=
EXTT1=
EXTT2=
EXTT3=
EXTT4=
EXTT5=
EXTT6=
EXTT7=
EXTT8=
EXTT9=
EXTT10=
EXTT11=
EXTT12=
EXTT13=
EXTT14=
EXTT15=
EXTT16=
EXTT17=
EXTT18=
EXTT19=
EXTT20=
EXTT21=
EXTT22=
EXTT23=
PLAYORDER=
